<svg xmlns="http://www.w3.org/2000/svg" version="1.1" xmlns:xlink="http://www.w3.org/1999/xlink" xmlns:svgjs="http://svgjs.dev/svgjs" viewBox="0 0 2400 800"><defs><linearGradient x1="50%" y1="0%" x2="50%" y2="100%" id="sssurf-grad"><stop stop-color="hsl(162, 100%, 58%)" stop-opacity="1" offset="0%"></stop><stop stop-color="hsl(270, 73%, 53%)" stop-opacity="1" offset="100%"></stop></linearGradient></defs><g fill="url(#sssurf-grad)" transform="matrix(1,0,0,1,10.8282470703125,223.02785301208496)"><path d="M-10,10C33.75,13.75,114.58333333333334,35.5,200,28C285.41666666666663,20.5,316.66666666666663,-24.125,400,-26C483.33333333333337,-27.875,516.6666666666666,18.166666666666668,600,19C683.3333333333334,19.833333333333332,716.6666666666666,-23.666666666666668,800,-22C883.3333333333334,-20.333333333333332,916.6666666666666,26.791666666666668,1000,27C1083.3333333333333,27.208333333333332,1116.6666666666667,-22.666666666666668,1200,-21C1283.3333333333333,-19.333333333333332,1316.6666666666667,35,1400,35C1483.3333333333333,35,1516.6666666666667,-19.958333333333332,1600,-21C1683.3333333333333,-22.041666666666668,1716.6666666666667,25.833333333333332,1800,30C1883.3333333333333,34.166666666666664,1916.6666666666667,-2.4583333333333335,2000,-1C2083.3333333333335,0.4583333333333335,2118.75,34.708333333333336,2200,37C2281.25,39.291666666666664,2296.25,-65.625,2390,10C2483.75,85.625,3252.0833333333335,214.58333333333331,2650,400C2047.9166666666665,585.4166666666667,156.25,795.8333333333334,-500,900" transform="matrix(1,0,0,1,0,35)" opacity="0.05"></path><path d="M-10,10C33.75,13.75,114.58333333333334,35.5,200,28C285.41666666666663,20.5,316.66666666666663,-24.125,400,-26C483.33333333333337,-27.875,516.6666666666666,18.166666666666668,600,19C683.3333333333334,19.833333333333332,716.6666666666666,-23.666666666666668,800,-22C883.3333333333334,-20.333333333333332,916.6666666666666,26.791666666666668,1000,27C1083.3333333333333,27.208333333333332,1116.6666666666667,-22.666666666666668,1200,-21C1283.3333333333333,-19.333333333333332,1316.6666666666667,35,1400,35C1483.3333333333333,35,1516.6666666666667,-19.958333333333332,1600,-21C1683.3333333333333,-22.041666666666668,1716.6666666666667,25.833333333333332,1800,30C1883.3333333333333,34.166666666666664,1916.6666666666667,-2.4583333333333335,2000,-1C2083.3333333333335,0.4583333333333335,2118.75,34.708333333333336,2200,37C2281.25,39.291666666666664,2296.25,-65.625,2390,10C2483.75,85.625,3252.0833333333335,214.58333333333331,2650,400C2047.9166666666665,585.4166666666667,156.25,795.8333333333334,-500,900" transform="matrix(1,0,0,1,0,70)" opacity="0.21"></path><path d="M-10,10C33.75,13.75,114.58333333333334,35.5,200,28C285.41666666666663,20.5,316.66666666666663,-24.125,400,-26C483.33333333333337,-27.875,516.6666666666666,18.166666666666668,600,19C683.3333333333334,19.833333333333332,716.6666666666666,-23.666666666666668,800,-22C883.3333333333334,-20.333333333333332,916.6666666666666,26.791666666666668,1000,27C1083.3333333333333,27.208333333333332,1116.6666666666667,-22.666666666666668,1200,-21C1283.3333333333333,-19.333333333333332,1316.6666666666667,35,1400,35C1483.3333333333333,35,1516.6666666666667,-19.958333333333332,1600,-21C1683.3333333333333,-22.041666666666668,1716.6666666666667,25.833333333333332,1800,30C1883.3333333333333,34.166666666666664,1916.6666666666667,-2.4583333333333335,2000,-1C2083.3333333333335,0.4583333333333335,2118.75,34.708333333333336,2200,37C2281.25,39.291666666666664,2296.25,-65.625,2390,10C2483.75,85.625,3252.0833333333335,214.58333333333331,2650,400C2047.9166666666665,585.4166666666667,156.25,795.8333333333334,-500,900" transform="matrix(1,0,0,1,0,105)" opacity="0.37"></path><path d="M-10,10C33.75,13.75,114.58333333333334,35.5,200,28C285.41666666666663,20.5,316.66666666666663,-24.125,400,-26C483.33333333333337,-27.875,516.6666666666666,18.166666666666668,600,19C683.3333333333334,19.833333333333332,716.6666666666666,-23.666666666666668,800,-22C883.3333333333334,-20.333333333333332,916.6666666666666,26.791666666666668,1000,27C1083.3333333333333,27.208333333333332,1116.6666666666667,-22.666666666666668,1200,-21C1283.3333333333333,-19.333333333333332,1316.6666666666667,35,1400,35C1483.3333333333333,35,1516.6666666666667,-19.958333333333332,1600,-21C1683.3333333333333,-22.041666666666668,1716.6666666666667,25.833333333333332,1800,30C1883.3333333333333,34.166666666666664,1916.6666666666667,-2.4583333333333335,2000,-1C2083.3333333333335,0.4583333333333335,2118.75,34.708333333333336,2200,37C2281.25,39.291666666666664,2296.25,-65.625,2390,10C2483.75,85.625,3252.0833333333335,214.58333333333331,2650,400C2047.9166666666665,585.4166666666667,156.25,795.8333333333334,-500,900" transform="matrix(1,0,0,1,0,140)" opacity="0.53"></path><path d="M-10,10C33.75,13.75,114.58333333333334,35.5,200,28C285.41666666666663,20.5,316.66666666666663,-24.125,400,-26C483.33333333333337,-27.875,516.6666666666666,18.166666666666668,600,19C683.3333333333334,19.833333333333332,716.6666666666666,-23.666666666666668,800,-22C883.3333333333334,-20.333333333333332,916.6666666666666,26.791666666666668,1000,27C1083.3333333333333,27.208333333333332,1116.6666666666667,-22.666666666666668,1200,-21C1283.3333333333333,-19.333333333333332,1316.6666666666667,35,1400,35C1483.3333333333333,35,1516.6666666666667,-19.958333333333332,1600,-21C1683.3333333333333,-22.041666666666668,1716.6666666666667,25.833333333333332,1800,30C1883.3333333333333,34.166666666666664,1916.6666666666667,-2.4583333333333335,2000,-1C2083.3333333333335,0.4583333333333335,2118.75,34.708333333333336,2200,37C2281.25,39.291666666666664,2296.25,-65.625,2390,10C2483.75,85.625,3252.0833333333335,214.58333333333331,2650,400C2047.9166666666665,585.4166666666667,156.25,795.8333333333334,-500,900" transform="matrix(1,0,0,1,0,175)" opacity="0.68"></path><path d="M-10,10C33.75,13.75,114.58333333333334,35.5,200,28C285.41666666666663,20.5,316.66666666666663,-24.125,400,-26C483.33333333333337,-27.875,516.6666666666666,18.166666666666668,600,19C683.3333333333334,19.833333333333332,716.6666666666666,-23.666666666666668,800,-22C883.3333333333334,-20.333333333333332,916.6666666666666,26.791666666666668,1000,27C1083.3333333333333,27.208333333333332,1116.6666666666667,-22.666666666666668,1200,-21C1283.3333333333333,-19.333333333333332,1316.6666666666667,35,1400,35C1483.3333333333333,35,1516.6666666666667,-19.958333333333332,1600,-21C1683.3333333333333,-22.041666666666668,1716.6666666666667,25.833333333333332,1800,30C1883.3333333333333,34.166666666666664,1916.6666666666667,-2.4583333333333335,2000,-1C2083.3333333333335,0.4583333333333335,2118.75,34.708333333333336,2200,37C2281.25,39.291666666666664,2296.25,-65.625,2390,10C2483.75,85.625,3252.0833333333335,214.58333333333331,2650,400C2047.9166666666665,585.4166666666667,156.25,795.8333333333334,-500,900" transform="matrix(1,0,0,1,0,210)" opacity="0.84"></path><path d="M-10,10C33.75,13.75,114.58333333333334,35.5,200,28C285.41666666666663,20.5,316.66666666666663,-24.125,400,-26C483.33333333333337,-27.875,516.6666666666666,18.166666666666668,600,19C683.3333333333334,19.833333333333332,716.6666666666666,-23.666666666666668,800,-22C883.3333333333334,-20.333333333333332,916.6666666666666,26.791666666666668,1000,27C1083.3333333333333,27.208333333333332,1116.6666666666667,-22.666666666666668,1200,-21C1283.3333333333333,-19.333333333333332,1316.6666666666667,35,1400,35C1483.3333333333333,35,1516.6666666666667,-19.958333333333332,1600,-21C1683.3333333333333,-22.041666666666668,1716.6666666666667,25.833333333333332,1800,30C1883.3333333333333,34.166666666666664,1916.6666666666667,-2.4583333333333335,2000,-1C2083.3333333333335,0.4583333333333335,2118.75,34.708333333333336,2200,37C2281.25,39.291666666666664,2296.25,-65.625,2390,10C2483.75,85.625,3252.0833333333335,214.58333333333331,2650,400C2047.9166666666665,585.4166666666667,156.25,795.8333333333334,-500,900" transform="matrix(1,0,0,1,0,245)" opacity="1"></path></g></svg>